# xmcd
#
# Track frame offsets: 
#        150
#        12762
#        26637
#        42687
#        60012
#        78612
#        98187
#        117612
#        130662
#        148250
#        164187
#        179187
#        191225
#        206037
#        225762
#        240462
#        279125
#        295512
#        315500
#
# Disc length: 4462 seconds
#
# Revision: 0
# Processed by: cddbd v1.5.2PL0 Copyright (c) Steve Scherf et al.
# Submitted via: ExactAudioCopy v0.99pb4
#
DISCID=11116c13
DTITLE=Various Artist - Dream Merchant
DYEAR=1989
DGENRE=R&B
TTITLE0=Smokey Robinson - OOO Baby, Baby
TTITLE1=Jerry Butler - Never Give You Up
TTITLE2=The Moments - Not on the Outside
TTITLE3=The Moments - All I Have
TTITLE4=Blue Magic - Sideshow
TTITLE5=Gladys Knight and the Pips - Neither One of Us
TTITLE6=Jerry Butler and Brenda Lee Enger - Ain't Understanding Mellow
TTITLE7=Gaarland Green - Jealous Kind of Fellow
TTITLE8=Shirley Brown - Woman to Woman
TTITLE9=Barbara Mason - From his woman to You
TTITLE10=The Delfonics - Didn't I 
TTITLE11=The Continental 4 - I Don't Have You
TTITLE12=The Whatnauts - I'll Erase Away Your Pain
TTITLE13=The Montclairs - Make Up for Lost Time
TTITLE14=Tavares - Check It Out
TTITLE15=Harold Melvin and the Blue Notes - I Miss You
TTITLE16=The Manhanttans - There's No me without You
TTITLE17=Brighter Side of Darkness - Love Jones
TTITLE18=Blues Magic - Spell
EXTD=
EXTT0=
EXTT1=
EXTT2=
EXTT3=
EXTT4=
EXTT5=
EXTT6=
EXTT7=
EXTT8=
EXTT9=
EXTT10=
EXTT11=
EXTT12=
EXTT13=
EXTT14=
EXTT15=
EXTT16=
EXTT17=
EXTT18=
PLAYORDER=
